# xmcd
#
# Track frame offsets: 
#        150
#        26044
#        45336
#        64377
#        111206
#
# Disc length: 1776 seconds
#
# Revision: 1
# Processed by: cddbd v1.5.2PL0 Copyright (c) Steve Scherf et al.
# Submitted via: ExactAudioCopy v1.3
#
DISCID=3e06ee05
DTITLE=Various Artist - Anlagenberater
DYEAR=1900
DGENRE=
TTITLE0=Simon Phillips - Narmada (Protocol III) 
TTITLE1=Otis Taylor - Jump to Mexico
TTITLE2=Caterina Zapponi - Waiting In Vain
TTITLE3=Charly Antolini - Duwadjuwandadu
TTITLE4=ClassicalRock - Hungarian Rhapsody, No. 2, from Vivace
EXTD=
EXTT0=
EXTT1=
EXTT2=
EXTT3=
EXTT4=
PLAYORDER=
